<?xml version="1.0" encoding="UTF-8" standalone="no"?>
<svg
   xmlns:dc="http://purl.org/dc/elements/1.1/"
   xmlns:cc="http://creativecommons.org/ns#"
   xmlns:rdf="http://www.w3.org/1999/02/22-rdf-syntax-ns#"
   xmlns:svg="http://www.w3.org/2000/svg"
   xmlns="http://www.w3.org/2000/svg"
   xmlns:xlink="http://www.w3.org/1999/xlink"
   xmlns:sodipodi="http://sodipodi.sourceforge.net/DTD/sodipodi-0.dtd"
   xmlns:inkscape="http://www.inkscape.org/namespaces/inkscape"
   data-v-fde0c5aa=""
   viewBox="0 0 223.15103 32.481792"
   class="iconLeft"
   version="1.1"
   id="svg25"
   sodipodi:docname="default-noborder.svg"
   width="223.15103"
   height="32.481792"
   inkscape:version="1.0.1 (3bc2e813f5, 2020-09-07)">
  <metadata
     id="metadata29">
    <rdf:RDF>
      <cc:Work
         rdf:about="">
        <dc:format>image/svg+xml</dc:format>
        <dc:type
           rdf:resource="http://purl.org/dc/dcmitype/StillImage" />
        <dc:title></dc:title>
      </cc:Work>
    </rdf:RDF>
  </metadata>
  <sodipodi:namedview
     pagecolor="#ffffff"
     bordercolor="#666666"
     borderopacity="1"
     objecttolerance="10"
     gridtolerance="10"
     guidetolerance="10"
     inkscape:pageopacity="0"
     inkscape:pageshadow="2"
     inkscape:window-width="1920"
     inkscape:window-height="1009"
     id="namedview27"
     showgrid="false"
     inkscape:zoom="2.8066667"
     inkscape:cx="111.63082"
     inkscape:cy="1.8404732"
     inkscape:window-x="1912"
     inkscape:window-y="-8"
     inkscape:window-maximized="1"
     inkscape:current-layer="svg25" />
  <!---->
  <defs
     data-v-fde0c5aa=""
     id="defs2">
    <!---->
    <linearGradient
       inkscape:collect="always"
       xlink:href="#e5df421a-c276-4146-bd06-518025664229"
       id="linearGradient31"
       gradientTransform="scale(0.97012348,1.0307966)"
       x1="20.751224"
       y1="16.686124"
       x2="69.063374"
       y2="16.686124"
       gradientUnits="userSpaceOnUse" />
    <linearGradient
       inkscape:collect="always"
       xlink:href="#e5df421a-c276-4146-bd06-518025664229"
       id="linearGradient33"
       gradientTransform="scale(1.0451897,0.95676415)"
       x1="0.95676415"
       y1="1.0451897"
       x2="57.501525"
       y2="1.0451897"
       gradientUnits="userSpaceOnUse" />
    <linearGradient
       inkscape:collect="always"
       xlink:href="#e5df421a-c276-4146-bd06-518025664229"
       id="linearGradient35"
       gradientTransform="scale(1.9388809,0.51576143)"
       x1="3.0945686"
       y1="31.603759"
       x2="13.564526"
       y2="31.603759"
       gradientUnits="userSpaceOnUse" />
    <linearGradient
       inkscape:collect="always"
       xlink:href="#e5df421a-c276-4146-bd06-518025664229"
       id="linearGradient37"
       x1="1"
       y1="1"
       x2="67"
       y2="1"
       gradientUnits="userSpaceOnUse" />
  </defs>
  <rect
     data-v-fde0c5aa=""
     fill="#efeeeb"
     x="0"
     y="0"
     width="223.15103"
     height="32.481792"
     class="logo-background-square"
     id="rect4"
     style="stroke-width:0.28379" />
  <defs
     data-v-fde0c5aa=""
     id="defs6">
    <!---->
  </defs>
  <g
     data-v-fde0c5aa=""
     id="7fece59c-155a-48ad-87e1-1d5af0ebab16"
     fill="#1f1e1a"
     transform="matrix(1.4258162,0,0,1.4258162,42.434236,-2.3863254)">
    <path
       d="m 2.22,13.45 v 0 0 q 0.35,0 0.73,0.1 v 0 0 q 0.37,0.09 0.69,0.28 v 0 0 q 0.31,0.2 0.52,0.5 v 0 0 q 0.2,0.31 0.2,0.73 v 0 0 q 0,0.26 -0.07,0.49 v 0 0 Q 4.21,15.78 4.1,15.99 v 0 0 Q 3.99,16.2 3.85,16.38 v 0 0 q -0.13,0.18 -0.24,0.33 v 0 0 q -0.12,0.15 -0.19,0.28 v 0 0 q -0.08,0.12 -0.08,0.22 v 0 0 q 0,0.14 0.17,0.23 v 0 0 q 0.17,0.09 0.43,0.09 v 0 0 q 0.25,0 0.48,-0.09 v 0 0 q 0.22,-0.1 0.39,-0.31 v 0 0 q 0.17,-0.2 0.28,-0.54 v 0 0 q 0.1,-0.34 0.1,-0.83 v 0 -4.48 0 q 0,-0.3 -0.08,-0.47 v 0 0 Q 5.02,10.64 4.9,10.56 v 0 0 Q 4.79,10.48 4.64,10.45 v 0 0 Q 4.5,10.42 4.38,10.38 v 0 0 Q 4.26,10.34 4.18,10.27 v 0 0 Q 4.09,10.2 4.09,10.04 v 0 0 q 0,-0.85 0.88,-1.23 v 0 0 Q 5.85,8.43 7.53,8.43 v 0 0 q 0.8,0 1.43,0.09 v 0 0 q 0.62,0.09 1.05,0.29 v 0 0 q 0.43,0.19 0.65,0.5 v 0 0 q 0.22,0.3 0.22,0.73 v 0 0 q 0,0.16 -0.08,0.23 v 0 0 q -0.08,0.07 -0.2,0.11 v 0 0 q -0.13,0.04 -0.27,0.07 v 0 0 q -0.14,0.04 -0.26,0.12 v 0 0 q -0.12,0.09 -0.21,0.25 v 0 0 q -0.08,0.17 -0.08,0.47 v 0 4.47 0 q 0,0.63 -0.19,1.16 v 0 0 q -0.18,0.52 -0.51,0.93 v 0 0 Q 8.75,18.27 8.3,18.57 v 0 0 q -0.45,0.31 -0.98,0.52 v 0 0 q -0.53,0.2 -1.11,0.3 v 0 0 q -0.58,0.1 -1.18,0.1 v 0 0 q -0.61,0 -1.21,-0.11 v 0 0 Q 3.21,19.28 2.66,19.07 v 0 0 Q 2.11,18.86 1.64,18.55 v 0 0 Q 1.17,18.24 0.82,17.82 v 0 0 Q 0.48,17.41 0.28,16.9 v 0 0 Q 0.09,16.38 0.09,15.76 v 0 0 q 0,-0.45 0.14,-0.87 v 0 0 q 0.15,-0.43 0.42,-0.74 v 0 0 q 0.27,-0.32 0.67,-0.51 v 0 0 q 0.4,-0.19 0.9,-0.19 z m 15.53,-3 v 0 0 q 0,-0.2 -0.34,-0.35 v 0 0 Q 17.06,9.94 16.35,9.94 v 0 0 q -0.49,0 -0.78,0.07 v 0 0 q -0.28,0.07 -0.43,0.18 v 0 0 q -0.15,0.11 -0.19,0.25 v 0 0 q -0.04,0.14 -0.04,0.29 v 0 0 q 0,0.29 0.28,0.51 v 0 0 q 0.27,0.22 0.73,0.42 v 0 0 q 0.45,0.2 1.03,0.4 v 0 0 q 0.58,0.2 1.19,0.44 v 0 0 q 0.61,0.24 1.19,0.56 v 0 0 q 0.58,0.31 1.04,0.73 v 0 0 q 0.45,0.43 0.73,1 v 0 0 q 0.28,0.56 0.28,1.31 v 0 0 q 0,0.96 -0.37,1.61 v 0 0 q -0.37,0.64 -1.03,1.04 v 0 0 q -0.66,0.4 -1.57,0.57 v 0 0 q -0.9,0.17 -1.98,0.17 v 0 0 q -0.63,0 -1.25,-0.1 v 0 0 Q 14.56,19.3 14,19.12 v 0 0 q -0.56,-0.18 -1.04,-0.45 v 0 0 q -0.48,-0.26 -0.84,-0.59 v 0 0 q -0.35,-0.33 -0.55,-0.73 v 0 0 q -0.2,-0.4 -0.2,-0.86 v 0 0 q 0,-0.35 0.11,-0.61 v 0 0 q 0.11,-0.26 0.29,-0.43 v 0 0 q 0.18,-0.16 0.41,-0.25 v 0 0 q 0.23,-0.08 0.49,-0.08 v 0 0 q 0.3,0 0.61,0.12 v 0 0 q 0.31,0.11 0.56,0.34 v 0 0 q 0.24,0.22 0.4,0.55 v 0 0 q 0.15,0.33 0.15,0.75 v 0 0 q 0,0.11 0.1,0.22 v 0 0 q 0.1,0.12 0.29,0.22 v 0 0 q 0.18,0.1 0.46,0.17 v 0 0 q 0.28,0.06 0.65,0.06 v 0 0 q 0.5,0 0.8,-0.06 v 0 0 q 0.3,-0.07 0.46,-0.17 v 0 0 q 0.17,-0.11 0.21,-0.25 v 0 0 q 0.05,-0.14 0.05,-0.27 v 0 0 q 0,-0.17 -0.25,-0.3 v 0 0 Q 16.91,16.37 16.5,16.23 v 0 0 Q 16.08,16.1 15.56,15.95 v 0 0 Q 15.03,15.8 14.48,15.59 v 0 0 q -0.55,-0.21 -1.08,-0.5 v 0 0 Q 12.87,14.81 12.46,14.4 v 0 0 Q 12.05,13.99 11.8,13.45 v 0 0 q -0.25,-0.54 -0.25,-1.27 v 0 0 q 0,-0.72 0.17,-1.28 v 0 0 q 0.17,-0.57 0.49,-1.01 v 0 0 q 0.32,-0.44 0.76,-0.75 v 0 0 q 0.45,-0.31 0.99,-0.51 v 0 0 q 0.55,-0.2 1.17,-0.29 v 0 0 q 0.63,-0.1 1.3,-0.1 v 0 0 q 1.21,0 2.06,0.25 v 0 0 q 0.86,0.24 1.39,0.62 v 0 0 q 0.53,0.39 0.77,0.85 v 0 0 q 0.25,0.47 0.25,0.92 v 0 0 q 0,0.4 -0.17,0.69 v 0 0 q -0.17,0.3 -0.45,0.49 v 0 0 q -0.27,0.19 -0.62,0.28 v 0 0 q -0.35,0.09 -0.7,0.09 v 0 0 q -0.35,0 -0.67,-0.08 v 0 0 q -0.33,-0.07 -0.57,-0.22 v 0 0 q -0.25,-0.15 -0.41,-0.37 v 0 0 q -0.15,-0.21 -0.15,-0.49 v 0 0 q 0,-0.21 0.09,-0.31 v 0 0 q 0.09,-0.1 0.21,-0.17 v 0 0 q 0.11,-0.07 0.2,-0.14 v 0 0 q 0.09,-0.07 0.09,-0.2 z M 29.98,9.88 v 6.54 0 q 0,0.31 0.08,0.48 v 0 0 q 0.09,0.17 0.21,0.26 v 0 0 q 0.12,0.09 0.27,0.12 v 0 0 q 0.14,0.04 0.26,0.08 v 0 0 q 0.13,0.04 0.21,0.11 v 0 0 q 0.08,0.07 0.08,0.24 v 0 0 q 0,0.85 -0.88,1.23 v 0 0 q -0.88,0.38 -2.55,0.38 v 0 0 q -0.81,0 -1.43,-0.09 v 0 0 q -0.63,-0.1 -1.06,-0.29 v 0 0 q -0.42,-0.2 -0.65,-0.5 v 0 0 Q 24.3,18.13 24.3,17.71 v 0 0 q 0,-0.17 0.08,-0.24 v 0 0 q 0.09,-0.07 0.21,-0.11 v 0 0 q 0.12,-0.04 0.26,-0.07 v 0 0 q 0.14,-0.04 0.25,-0.12 v 0 0 q 0.12,-0.09 0.21,-0.25 v 0 0 q 0.08,-0.17 0.08,-0.47 v 0 -6.55 l -0.77,0.03 -0.26,1.09 v 0 q -0.11,0.37 -0.27,0.62 v 0 0 q -0.16,0.25 -0.34,0.42 v 0 0 q -0.19,0.16 -0.39,0.23 v 0 0 q -0.21,0.07 -0.42,0.07 v 0 0 q -0.24,0 -0.45,-0.08 v 0 0 q -0.2,-0.08 -0.36,-0.24 v 0 0 q -0.15,-0.15 -0.24,-0.36 v 0 0 q -0.08,-0.22 -0.08,-0.5 v 0 0 q 0,-0.41 0.12,-0.89 v 0 0 Q 22.05,9.81 22.29,9.4 v 0 0 Q 22.53,8.98 22.9,8.71 v 0 0 q 0.37,-0.28 0.87,-0.28 v 0 h 7.84 v 0 q 0.5,0 0.86,0.27 v 0 0 q 0.37,0.28 0.61,0.69 v 0 0 q 0.25,0.41 0.36,0.89 v 0 0 q 0.12,0.48 0.12,0.89 v 0 0 q 0,0.27 -0.08,0.49 v 0 0 q -0.09,0.22 -0.24,0.37 v 0 0 q -0.15,0.15 -0.36,0.23 v 0 0 q -0.2,0.09 -0.44,0.09 v 0 0 q -0.22,0 -0.43,-0.07 v 0 0 q -0.21,-0.07 -0.4,-0.23 v 0 0 q -0.19,-0.16 -0.35,-0.42 v 0 0 Q 31.11,11.38 31.02,11 v 0 L 30.75,9.91 Z m 9.1,3.15 -0.01,3.66 v 0 q 0,0.28 0.07,0.43 v 0 0 q 0.08,0.16 0.19,0.24 v 0 0 q 0.11,0.08 0.24,0.11 v 0 0 q 0.13,0.03 0.25,0.06 v 0 0 q 0.11,0.04 0.18,0.1 v 0 0 q 0.08,0.07 0.08,0.22 v 0 0 q 0,0.78 -0.81,1.12 v 0 0 q -0.8,0.35 -2.33,0.35 v 0 0 q -0.74,0 -1.3,-0.08 v 0 0 q -0.57,-0.09 -0.96,-0.27 v 0 0 q -0.39,-0.18 -0.59,-0.45 v 0 0 q -0.2,-0.28 -0.2,-0.67 v 0 0 q 0,-0.15 0.07,-0.22 v 0 0 q 0.08,-0.06 0.19,-0.1 v 0 0 q 0.1,-0.03 0.23,-0.06 v 0 0 q 0.13,-0.02 0.24,-0.1 v 0 0 q 0.11,-0.08 0.19,-0.23 v 0 0 q 0.07,-0.15 0.07,-0.43 v 0 -3.65 0 q 0,-0.27 -0.07,-0.42 v 0 0 q -0.08,-0.15 -0.19,-0.23 v 0 0 Q 34.51,12.33 34.38,12.3 v 0 0 q -0.13,-0.02 -0.23,-0.06 v 0 0 q -0.11,-0.03 -0.19,-0.1 v 0 0 q -0.07,-0.06 -0.07,-0.21 v 0 0 q 0,-0.39 0.2,-0.67 v 0 0 q 0.2,-0.27 0.59,-0.46 v 0 0 q 0.39,-0.18 0.96,-0.26 v 0 0 q 0.56,-0.08 1.3,-0.08 v 0 0 q 0.68,0 1.08,0.13 v 0 0 q 0.41,0.14 0.64,0.4 v 0 0 q 0.2,-0.13 0.4,-0.24 v 0 0 q 0.21,-0.11 0.44,-0.2 v 0 0 q 0.23,-0.08 0.5,-0.13 v 0 0 q 0.28,-0.05 0.61,-0.05 v 0 0 q 0.41,0 0.79,0.09 v 0 0 q 0.37,0.08 0.67,0.28 v 0 0 q 0.29,0.19 0.47,0.5 v 0 0 q 0.17,0.31 0.17,0.77 v 0 0 q 0,0.3 -0.1,0.59 v 0 0 q -0.1,0.29 -0.31,0.51 v 0 0 q -0.2,0.22 -0.5,0.36 v 0 0 q -0.31,0.13 -0.7,0.13 v 0 0 q -0.4,0 -0.62,-0.11 v 0 0 Q 40.25,13.37 40.13,13.2 v 0 0 Q 40,13.03 39.95,12.83 v 0 0 q -0.06,-0.2 -0.13,-0.37 v 0 0 q -0.06,-0.18 -0.17,-0.29 v 0 0 q -0.1,-0.12 -0.32,-0.12 v 0 0 q -0.21,0 -0.28,0.05 v 0 0 q -0.06,0.05 -0.06,0.15 v 0 0 q 0,0.12 0.04,0.31 v 0 0 q 0.05,0.2 0.05,0.47 z m 8.55,4.89 v 0 0 q 0.22,0 0.36,-0.07 v 0 0 q 0.14,-0.08 0.22,-0.21 v 0 0 q 0.07,-0.13 0.1,-0.33 v 0 0 q 0.02,-0.19 0.02,-0.44 v 0 0 q 0,-0.21 -0.01,-0.54 v 0 0 q 0,-0.33 -0.01,-0.64 v 0 0 Q 48.3,15.32 48.29,14.92 v 0 0 q -0.1,-0.01 -0.18,-0.02 v 0 0 q -0.09,-0.01 -0.17,-0.01 v 0 0 q -0.35,0 -0.58,0.14 v 0 0 q -0.24,0.14 -0.38,0.39 v 0 0 q -0.15,0.25 -0.21,0.59 v 0 0 q -0.05,0.33 -0.05,0.73 v 0 0 q 0,0.24 0.02,0.46 v 0 0 q 0.03,0.21 0.13,0.37 v 0 0 q 0.09,0.16 0.27,0.25 v 0 0 q 0.19,0.1 0.49,0.1 z m 3.29,1.4 v 0 0 q -0.35,0 -0.69,-0.04 v 0 0 q -0.35,-0.04 -0.66,-0.15 v 0 0 Q 49.26,19.01 49,18.79 v 0 0 q -0.26,-0.22 -0.44,-0.58 v 0 0 q -0.14,0.32 -0.45,0.56 v 0 0 q -0.3,0.24 -0.69,0.4 v 0 0 q -0.38,0.16 -0.81,0.24 v 0 0 q -0.43,0.08 -0.82,0.08 v 0 0 q -0.69,0 -1.21,-0.16 v 0 0 q -0.52,-0.17 -0.87,-0.47 v 0 0 q -0.36,-0.31 -0.53,-0.73 v 0 0 Q 43,17.71 43,17.18 v 0 0 Q 43,16.56 43.21,16 v 0 0 q 0.21,-0.56 0.71,-0.97 v 0 0 q 0.5,-0.42 1.34,-0.66 v 0 0 q 0.84,-0.25 2.11,-0.25 v 0 h 0.93 v 0 q 0,-0.76 -0.05,-1.25 v 0 0 q -0.05,-0.5 -0.16,-0.8 v 0 0 q -0.11,-0.29 -0.27,-0.41 v 0 0 q -0.17,-0.11 -0.4,-0.11 v 0 0 q -0.26,0 -0.43,0.15 v 0 0 q -0.18,0.16 -0.28,0.46 v 0 0 q -0.11,0.3 -0.15,0.72 v 0 0 q -0.05,0.42 -0.05,0.95 v 0 0 q -0.29,0 -0.62,-0.01 v 0 0 q -0.32,-0.01 -0.64,-0.05 v 0 0 q -0.32,-0.04 -0.6,-0.13 v 0 0 q -0.28,-0.08 -0.5,-0.23 v 0 0 Q 43.93,13.26 43.8,13.04 v 0 0 q -0.13,-0.23 -0.13,-0.55 v 0 0 q 0,-0.45 0.23,-0.86 v 0 0 q 0.24,-0.4 0.73,-0.7 v 0 0 q 0.49,-0.31 1.24,-0.49 v 0 0 q 0.75,-0.18 1.79,-0.18 v 0 0 q 1.21,0 2.09,0.25 v 0 0 q 0.87,0.24 1.43,0.74 v 0 0 q 0.57,0.49 0.84,1.24 v 0 0 q 0.27,0.74 0.27,1.75 v 0 2.42 0 q 0,0.29 0.08,0.46 v 0 0 q 0.08,0.16 0.19,0.25 v 0 0 q 0.11,0.08 0.25,0.12 v 0 0 q 0.13,0.03 0.25,0.07 v 0 0 q 0.11,0.04 0.19,0.1 v 0 0 q 0.08,0.07 0.08,0.22 v 0 0 q 0,0.68 -0.61,1.06 v 0 0 q -0.62,0.38 -1.8,0.38 z m 8.07,-6.26 -0.01,3.63 v 0 q 0,0.28 0.08,0.43 v 0 0 q 0.07,0.16 0.18,0.24 v 0 0 q 0.12,0.08 0.25,0.11 v 0 0 q 0.13,0.03 0.24,0.06 v 0 0 q 0.11,0.04 0.19,0.1 v 0 0 q 0.07,0.07 0.07,0.22 v 0 0 q 0,0.78 -0.8,1.12 v 0 0 q -0.81,0.35 -2.34,0.35 v 0 0 q -0.73,0 -1.3,-0.08 v 0 0 q -0.57,-0.09 -0.96,-0.27 v 0 0 Q 54.2,18.79 54,18.52 v 0 0 q -0.2,-0.28 -0.2,-0.67 v 0 0 q 0,-0.15 0.07,-0.22 v 0 0 q 0.08,-0.06 0.19,-0.1 v 0 0 q 0.11,-0.03 0.24,-0.06 v 0 0 q 0.13,-0.02 0.24,-0.1 v 0 0 q 0.11,-0.08 0.18,-0.23 v 0 0 q 0.08,-0.15 0.08,-0.43 v 0 -3.65 0 q 0,-0.27 -0.08,-0.42 v 0 0 q -0.07,-0.15 -0.18,-0.23 v 0 0 Q 54.43,12.33 54.3,12.3 v 0 0 q -0.13,-0.02 -0.24,-0.06 v 0 0 q -0.11,-0.03 -0.19,-0.1 v 0 0 Q 53.8,12.08 53.8,11.93 v 0 0 q 0,-0.39 0.2,-0.67 v 0 0 q 0.2,-0.27 0.59,-0.46 v 0 0 q 0.39,-0.18 0.96,-0.26 v 0 0 q 0.57,-0.08 1.3,-0.08 v 0 0 q 0.67,0 1.07,0.11 v 0 0 q 0.4,0.11 0.62,0.25 v 0 0 q 0.25,0.17 0.34,0.36 v 0 0 q 0.36,-0.25 0.85,-0.45 v 0 0 q 0.43,-0.18 1.04,-0.33 v 0 0 q 0.61,-0.14 1.43,-0.14 v 0 0 q 0.75,0 1.3,0.19 v 0 0 q 0.54,0.19 0.92,0.5 v 0 0 q 0.38,0.32 0.61,0.74 v 0 0 q 0.23,0.42 0.36,0.88 v 0 0 q 0.13,0.46 0.17,0.93 v 0 0 q 0.04,0.47 0.04,0.89 v 0 2.26 0 q 0,0.29 0.08,0.45 v 0 0 q 0.07,0.16 0.19,0.25 v 0 0 q 0.12,0.08 0.25,0.11 v 0 0 q 0.13,0.03 0.25,0.07 v 0 0 q 0.12,0.04 0.19,0.1 v 0 0 q 0.08,0.07 0.08,0.22 v 0 0 q 0,0.78 -0.81,1.12 v 0 0 q -0.8,0.35 -2.32,0.35 v 0 0 q -0.74,0 -1.31,-0.08 v 0 0 q -0.57,-0.09 -0.96,-0.27 v 0 0 q -0.39,-0.18 -0.59,-0.45 v 0 0 q -0.2,-0.28 -0.2,-0.67 v 0 0 q 0,-0.15 0.08,-0.22 v 0 0 q 0.07,-0.06 0.19,-0.1 v 0 0 q 0.11,-0.03 0.24,-0.06 v 0 0 q 0.13,-0.02 0.25,-0.1 v 0 0 q 0.12,-0.08 0.19,-0.23 v 0 0 q 0.08,-0.15 0.08,-0.43 v 0 -2.92 0 q 0,-0.42 -0.07,-0.75 v 0 0 q -0.06,-0.33 -0.22,-0.56 v 0 0 q -0.15,-0.23 -0.4,-0.35 v 0 0 q -0.26,-0.12 -0.63,-0.12 v 0 0 q -0.24,0 -0.45,0.08 v 0 0 q -0.22,0.08 -0.37,0.22 v 0 0 q -0.16,0.14 -0.25,0.33 v 0 0 q -0.1,0.2 -0.1,0.42 z m 13.39,-1.01 v 0 0 q 0,-0.16 -0.29,-0.29 v 0 0 Q 71.8,11.63 71.22,11.63 v 0 0 q -0.3,0 -0.49,0.04 v 0 0 q -0.19,0.03 -0.3,0.09 v 0 0 q -0.11,0.07 -0.15,0.16 v 0 0 q -0.03,0.08 -0.03,0.2 v 0 0 q 0,0.23 0.21,0.39 v 0 0 q 0.22,0.17 0.58,0.33 v 0 0 q 0.36,0.16 0.82,0.31 v 0 0 q 0.46,0.16 0.94,0.36 v 0 0 q 0.47,0.2 0.93,0.47 v 0 0 q 0.46,0.26 0.82,0.62 v 0 0 q 0.36,0.36 0.58,0.84 v 0 0 q 0.22,0.47 0.22,1.1 v 0 0 q 0,0.78 -0.36,1.33 v 0 0 q -0.35,0.56 -0.92,0.92 v 0 0 q -0.58,0.36 -1.31,0.53 v 0 0 q -0.74,0.17 -1.5,0.17 v 0 0 q -0.77,0 -1.52,-0.16 v 0 0 Q 69,19.17 68.42,18.88 v 0 0 q -0.58,-0.29 -0.94,-0.69 v 0 0 q -0.35,-0.4 -0.35,-0.89 v 0 0 q 0,-0.29 0.09,-0.5 v 0 0 q 0.09,-0.22 0.23,-0.36 v 0 0 q 0.15,-0.14 0.34,-0.2 v 0 0 q 0.19,-0.07 0.4,-0.07 v 0 0 q 0.33,0 0.54,0.07 v 0 0 q 0.21,0.08 0.34,0.2 v 0 0 q 0.14,0.12 0.22,0.27 v 0 0 q 0.08,0.15 0.16,0.32 v 0 0 q 0.07,0.16 0.16,0.32 v 0 0 q 0.09,0.15 0.24,0.27 v 0 0 q 0.15,0.12 0.39,0.19 v 0 0 q 0.23,0.08 0.59,0.08 v 0 0 q 0.59,0 0.86,-0.1 v 0 0 q 0.28,-0.11 0.28,-0.41 v 0 0 q 0,-0.11 -0.2,-0.21 v 0 0 q -0.2,-0.11 -0.53,-0.22 v 0 0 q -0.33,-0.12 -0.75,-0.26 v 0 0 q -0.43,-0.15 -0.87,-0.34 v 0 0 q -0.43,-0.2 -0.86,-0.45 v 0 0 q -0.42,-0.26 -0.75,-0.6 v 0 0 q -0.33,-0.34 -0.53,-0.77 v 0 0 q -0.2,-0.44 -0.2,-0.99 v 0 0 q 0,-0.61 0.15,-1.1 v 0 0 q 0.15,-0.48 0.42,-0.84 v 0 0 q 0.27,-0.37 0.65,-0.62 v 0 0 q 0.37,-0.25 0.82,-0.42 v 0 0 q 0.44,-0.16 0.94,-0.23 v 0 0 q 0.5,-0.07 1.03,-0.07 v 0 0 q 0.9,0 1.55,0.17 v 0 0 q 0.65,0.17 1.07,0.44 v 0 0 q 0.42,0.27 0.62,0.6 v 0 0 q 0.2,0.33 0.2,0.65 v 0 0 q 0,0.23 -0.09,0.43 v 0 0 q -0.09,0.2 -0.27,0.35 v 0 0 q -0.18,0.15 -0.43,0.24 v 0 0 q -0.26,0.09 -0.58,0.09 v 0 0 q -0.37,0 -0.61,-0.04 v 0 0 q -0.23,-0.04 -0.37,-0.12 v 0 0 Q 72.24,13 72.18,12.9 v 0 0 q -0.05,-0.1 -0.05,-0.22 v 0 0 q 0,-0.12 0.04,-0.18 v 0 0 q 0.04,-0.07 0.08,-0.12 v 0 0 q 0.05,-0.06 0.09,-0.13 v 0 0 q 0.04,-0.07 0.04,-0.2 z m 8.22,-1.79 v 0 0 q 1.02,0 1.74,0.23 v 0 0 q 0.72,0.22 1.18,0.6 v 0 0 q 0.47,0.39 0.68,0.9 v 0 0 q 0.21,0.51 0.21,1.09 v 0 0 q 0,0.24 -0.08,0.42 v 0 0 q -0.07,0.19 -0.2,0.32 v 0 0 q -0.12,0.13 -0.3,0.19 v 0 0 q -0.18,0.07 -0.38,0.07 v 0 0 q -0.18,0 -0.37,-0.06 v 0 0 q -0.18,-0.06 -0.34,-0.2 v 0 0 q -0.17,-0.13 -0.3,-0.35 v 0 0 q -0.13,-0.22 -0.2,-0.54 v 0 0 q -0.05,-0.22 -0.16,-0.39 v 0 0 q -0.11,-0.17 -0.25,-0.29 v 0 0 q -0.14,-0.12 -0.31,-0.18 v 0 0 q -0.17,-0.06 -0.33,-0.06 v 0 0 q -0.29,0 -0.51,0.12 v 0 0 q -0.21,0.13 -0.36,0.36 v 0 0 q -0.14,0.24 -0.21,0.58 v 0 0 q -0.07,0.34 -0.07,0.76 v 0 0 q 0,1.64 0.5,2.43 v 0 0 q 0.49,0.79 1.59,0.79 v 0 0 q 0.31,0 0.64,-0.09 v 0 0 q 0.33,-0.08 0.61,-0.18 v 0 0 q 0.28,-0.11 0.48,-0.19 v 0 0 q 0.21,-0.09 0.28,-0.09 v 0 0 q 0.16,0 0.25,0.14 v 0 0 q 0.09,0.13 0.09,0.3 v 0 0 q 0,0.05 0,0.1 v 0 0 q -0.01,0.05 -0.03,0.1 v 0 0 q -0.2,0.5 -0.56,0.93 v 0 0 q -0.36,0.43 -0.86,0.75 v 0 0 q -0.51,0.31 -1.14,0.49 v 0 0 q -0.64,0.18 -1.38,0.18 v 0 0 q -0.77,0 -1.4,-0.18 v 0 0 Q 78.47,19.13 77.96,18.8 v 0 0 q -0.51,-0.32 -0.89,-0.76 v 0 0 Q 76.69,17.6 76.44,17.09 v 0 0 q -0.26,-0.52 -0.39,-1.08 v 0 0 q -0.12,-0.57 -0.12,-1.14 v 0 0 q 0,-0.58 0.13,-1.15 v 0 0 q 0.13,-0.57 0.39,-1.09 v 0 0 q 0.26,-0.51 0.65,-0.94 v 0 0 q 0.39,-0.44 0.9,-0.76 v 0 0 q 0.52,-0.31 1.17,-0.49 v 0 0 q 0.65,-0.18 1.43,-0.18 z m 9.3,9.23 v 0 0 q -0.81,0 -1.49,-0.19 v 0 0 q -0.68,-0.19 -1.23,-0.53 v 0 0 q -0.54,-0.33 -0.95,-0.78 v 0 0 q -0.41,-0.45 -0.69,-0.97 v 0 0 Q 85.27,16.5 85.13,15.93 v 0 0 Q 85,15.36 85,14.79 v 0 0 q 0,-0.58 0.15,-1.14 v 0 0 q 0.14,-0.57 0.44,-1.07 v 0 0 q 0.3,-0.51 0.74,-0.93 v 0 0 q 0.45,-0.43 1.04,-0.73 v 0 0 q 0.6,-0.31 1.35,-0.48 v 0 0 q 0.75,-0.18 1.65,-0.18 v 0 0 q 0.79,0 1.45,0.18 v 0 0 q 0.66,0.18 1.2,0.49 v 0 0 q 0.53,0.31 0.93,0.73 v 0 0 q 0.4,0.43 0.67,0.92 v 0 0 q 0.26,0.5 0.4,1.06 v 0 0 q 0.13,0.55 0.13,1.11 v 0 0 q 0,0.58 -0.14,1.16 v 0 0 q -0.15,0.59 -0.44,1.11 v 0 0 Q 94.28,17.55 93.84,18 v 0 0 q -0.43,0.45 -1.02,0.78 v 0 0 q -0.58,0.33 -1.31,0.52 v 0 0 q -0.74,0.19 -1.61,0.19 z m 0.31,-1.75 v 0 0 q 0.22,0 0.38,-0.13 v 0 0 q 0.15,-0.14 0.25,-0.39 v 0 0 q 0.09,-0.25 0.13,-0.61 v 0 0 q 0.04,-0.36 0.04,-0.81 v 0 0 q 0,-0.38 0,-0.82 v 0 0 Q 91,14.55 90.97,14.13 v 0 0 q -0.02,-0.42 -0.09,-0.81 v 0 0 q -0.06,-0.38 -0.17,-0.67 v 0 0 q -0.11,-0.3 -0.28,-0.47 v 0 0 q -0.18,-0.17 -0.42,-0.17 v 0 0 q -0.24,0 -0.41,0.13 v 0 0 q -0.17,0.14 -0.27,0.38 v 0 0 q -0.11,0.24 -0.17,0.57 v 0 0 q -0.05,0.34 -0.05,0.74 v 0 0 q 0,0.38 0.02,0.81 v 0 0 q 0.01,0.44 0.05,0.87 v 0 0 q 0.04,0.44 0.12,0.84 v 0 0 q 0.08,0.4 0.2,0.71 v 0 0 q 0.12,0.31 0.29,0.49 v 0 0 q 0.18,0.19 0.42,0.19 z m 16.06,-9.72 -0.03,8.67 v 0 q 0,0.28 0.08,0.43 v 0 0 q 0.07,0.16 0.18,0.24 v 0 0 q 0.11,0.08 0.25,0.11 v 0 0 q 0.13,0.03 0.24,0.06 v 0 0 q 0.11,0.04 0.18,0.1 v 0 0 q 0.08,0.07 0.08,0.22 v 0 0 q 0,0.78 -0.81,1.12 v 0 0 q -0.8,0.35 -2.33,0.35 v 0 0 q -0.41,0 -0.72,-0.06 v 0 0 q -0.3,-0.06 -0.53,-0.18 v 0 0 q -0.22,-0.11 -0.36,-0.27 v 0 0 q -0.15,-0.16 -0.23,-0.36 v 0 0 q -0.18,0.16 -0.44,0.35 v 0 0 q -0.25,0.18 -0.62,0.34 v 0 0 q -0.37,0.15 -0.84,0.25 v 0 0 q -0.48,0.1 -1.08,0.1 v 0 0 q -0.7,0 -1.23,-0.19 v 0 0 q -0.52,-0.19 -0.91,-0.53 v 0 0 Q 96.76,18.44 96.5,18 v 0 0 q -0.26,-0.45 -0.41,-0.95 v 0 0 Q 95.93,16.54 95.86,16 v 0 0 Q 95.8,15.46 95.8,14.94 v 0 0 q 0,-0.54 0.08,-1.1 v 0 0 q 0.08,-0.55 0.26,-1.07 v 0 0 q 0.18,-0.52 0.46,-0.98 v 0 0 Q 96.89,11.33 97.29,11 v 0 0 q 0.41,-0.34 0.95,-0.54 v 0 0 q 0.55,-0.2 1.24,-0.2 v 0 0 q 0.48,0 0.88,0.07 v 0 0 q 0.39,0.07 0.71,0.19 v 0 0 q 0.32,0.12 0.56,0.27 v 0 0 q 0.25,0.15 0.42,0.3 v 0 -2.06 0 q 0,-0.28 -0.07,-0.43 v 0 0 Q 101.91,8.46 101.8,8.38 v 0 0 Q 101.68,8.3 101.56,8.27 v 0 0 q -0.13,-0.03 -0.24,-0.06 v 0 0 q -0.11,-0.03 -0.19,-0.1 v 0 0 Q 101.06,8.05 101.06,7.9 v 0 0 q 0,-0.39 0.2,-0.67 v 0 0 q 0.21,-0.28 0.6,-0.46 v 0 0 q 0.39,-0.18 0.95,-0.26 v 0 0 q 0.57,-0.08 1.3,-0.08 v 0 0 q 0.74,0 1.17,0.07 v 0 0 q 0.42,0.08 0.65,0.26 v 0 0 q 0.22,0.18 0.28,0.49 v 0 0 q 0.06,0.3 0.06,0.77 z m -5.21,9.73 v 0 0 q 0.28,0 0.54,-0.09 v 0 0 q 0.27,-0.1 0.47,-0.21 v 0 0 q -0.02,-0.18 -0.02,-0.36 v 0 0 q 0,-0.18 0,-0.38 v 0 -4.32 0 q -0.23,-0.14 -0.51,-0.26 v 0 0 q -0.28,-0.12 -0.57,-0.12 v 0 0 q -0.32,0 -0.52,0.14 v 0 0 q -0.2,0.15 -0.32,0.49 v 0 0 q -0.11,0.33 -0.16,0.91 v 0 0 q -0.04,0.57 -0.04,1.41 v 0 0 q 0,0.52 0.03,1.02 v 0 0 q 0.04,0.49 0.15,0.89 v 0 0 q 0.12,0.39 0.34,0.64 v 0 0 q 0.23,0.24 0.61,0.24 z m 11.93,-5.74 v 0 0 q -0.22,0 -0.41,0.1 v 0 0 q -0.19,0.1 -0.33,0.3 v 0 0 q -0.14,0.21 -0.22,0.53 v 0 0 q -0.08,0.31 -0.08,0.75 v 0 h 2.18 v 0 q 0,-0.48 -0.07,-0.8 v 0 0 q -0.08,-0.33 -0.22,-0.52 v 0 0 q -0.14,-0.2 -0.36,-0.28 v 0 0 q -0.22,-0.08 -0.49,-0.08 z m -0.5,-1.75 v 0 0 q 0.91,0 1.65,0.27 v 0 0 q 0.73,0.28 1.25,0.76 v 0 0 q 0.51,0.47 0.79,1.12 v 0 0 q 0.28,0.65 0.28,1.39 v 0 0 q 0,0.31 -0.09,0.48 v 0 0 q -0.08,0.17 -0.24,0.25 v 0 0 q -0.16,0.09 -0.39,0.11 v 0 0 q -0.23,0.02 -0.53,0.02 v 0 h -3.29 v 0 q 0,0.75 0.16,1.22 v 0 0 q 0.15,0.46 0.43,0.72 v 0 0 q 0.27,0.26 0.65,0.36 v 0 0 q 0.38,0.09 0.85,0.09 v 0 0 q 0.25,0 0.51,-0.05 v 0 0 q 0.26,-0.05 0.5,-0.12 v 0 0 q 0.25,-0.08 0.45,-0.16 v 0 0 q 0.21,-0.08 0.34,-0.16 v 0 0 q 0.11,-0.06 0.22,-0.06 v 0 0 q 0.15,0 0.24,0.14 v 0 0 q 0.09,0.13 0.09,0.29 v 0 0 q 0,0.06 -0.01,0.11 v 0 0 q 0,0.04 -0.02,0.09 v 0 0 q -0.2,0.51 -0.54,0.94 v 0 0 q -0.34,0.43 -0.83,0.75 v 0 0 q -0.49,0.31 -1.13,0.49 v 0 0 q -0.65,0.18 -1.45,0.18 v 0 0 q -0.76,0 -1.4,-0.18 v 0 0 q -0.63,-0.18 -1.14,-0.51 v 0 0 q -0.51,-0.32 -0.89,-0.76 v 0 0 q -0.38,-0.44 -0.63,-0.95 v 0 0 q -0.26,-0.52 -0.38,-1.08 v 0 0 q -0.13,-0.57 -0.13,-1.14 v 0 0 q 0,-0.58 0.13,-1.15 v 0 0 q 0.13,-0.57 0.39,-1.09 v 0 0 q 0.26,-0.51 0.65,-0.94 v 0 0 q 0.39,-0.44 0.91,-0.76 v 0 0 q 0.52,-0.31 1.17,-0.49 v 0 0 q 0.65,-0.18 1.43,-0.18 z m 9.56,2.77 -0.01,3.66 v 0 q 0,0.28 0.07,0.43 v 0 0 q 0.08,0.16 0.19,0.24 v 0 0 q 0.11,0.08 0.24,0.11 v 0 0 q 0.13,0.03 0.24,0.06 v 0 0 q 0.12,0.04 0.19,0.1 v 0 0 q 0.08,0.07 0.08,0.22 v 0 0 q 0,0.78 -0.81,1.12 v 0 0 q -0.81,0.35 -2.33,0.35 v 0 0 q -0.74,0 -1.31,-0.08 v 0 0 q -0.56,-0.09 -0.95,-0.27 v 0 0 q -0.39,-0.18 -0.59,-0.45 v 0 0 q -0.21,-0.28 -0.21,-0.67 v 0 0 q 0,-0.15 0.08,-0.22 v 0 0 q 0.07,-0.06 0.18,-0.1 v 0 0 q 0.11,-0.03 0.24,-0.06 v 0 0 q 0.13,-0.02 0.24,-0.1 v 0 0 q 0.11,-0.08 0.19,-0.23 v 0 0 q 0.07,-0.15 0.07,-0.43 v 0 -3.65 0 q 0,-0.27 -0.07,-0.42 v 0 0 q -0.08,-0.15 -0.19,-0.23 v 0 0 q -0.11,-0.08 -0.24,-0.11 v 0 0 q -0.13,-0.02 -0.24,-0.06 v 0 0 q -0.11,-0.03 -0.18,-0.1 v 0 0 q -0.08,-0.06 -0.08,-0.21 v 0 0 q 0,-0.39 0.21,-0.67 v 0 0 q 0.2,-0.27 0.59,-0.46 v 0 0 q 0.39,-0.18 0.95,-0.26 v 0 0 q 0.57,-0.08 1.31,-0.08 v 0 0 q 0.68,0 1.08,0.13 v 0 0 q 0.41,0.14 0.64,0.4 v 0 0 q 0.19,-0.13 0.4,-0.24 v 0 0 q 0.2,-0.11 0.44,-0.2 v 0 0 q 0.23,-0.08 0.5,-0.13 v 0 0 q 0.28,-0.05 0.6,-0.05 v 0 0 q 0.41,0 0.79,0.09 v 0 0 q 0.38,0.08 0.68,0.28 v 0 0 q 0.29,0.19 0.46,0.5 v 0 0 q 0.18,0.31 0.18,0.77 v 0 0 q 0,0.3 -0.1,0.59 v 0 0 q -0.11,0.29 -0.31,0.51 v 0 0 q -0.2,0.22 -0.5,0.36 v 0 0 q -0.31,0.13 -0.7,0.13 v 0 0 q -0.4,0 -0.63,-0.11 v 0 0 q -0.22,-0.12 -0.35,-0.29 v 0 0 q -0.12,-0.17 -0.18,-0.37 v 0 0 q -0.05,-0.2 -0.12,-0.37 v 0 0 q -0.06,-0.18 -0.17,-0.29 v 0 0 q -0.11,-0.12 -0.32,-0.12 v 0 0 q -0.21,0 -0.28,0.05 v 0 0 q -0.07,0.05 -0.07,0.15 v 0 0 q 0,0.12 0.05,0.31 v 0 0 q 0.05,0.2 0.05,0.47 z"
       id="path8" />
  </g>
  <defs
     data-v-fde0c5aa=""
     id="defs16">
    <linearGradient
       data-v-fde0c5aa=""
       gradientTransform="rotate(25)"
       id="e5df421a-c276-4146-bd06-518025664229"
       x1="0"
       y1="0"
       x2="1"
       y2="0">
      <stop
         data-v-fde0c5aa=""
         offset="0%"
         stop-color="#0978A6"
         stop-opacity="1"
         id="stop11" />
      <stop
         data-v-fde0c5aa=""
         offset="100%"
         stop-color="#FB9447"
         stop-opacity="1"
         id="stop13" />
    </linearGradient>
  </defs>
  <g
     data-v-fde0c5aa=""
     id="5e14dddf-183e-4b72-a373-3a4297b87f1c"
     stroke="none"
     fill="url(#e5df421a-c276-4146-bd06-518025664229)"
     transform="matrix(0.42320815,0,0,0.42320815,1.2076132,1.7031746)"
     style="fill:url(#linearGradient37)">
    <path
       d="m 33.8,48.9 c -4.5,0 -8.2,-3.1 -9.2,-7.3 l 1.3,0.9 c 0.5,0.3 1.1,0.2 1.4,-0.3 0.3,-0.5 0.2,-1.1 -0.3,-1.4 l -3.1,-2.1 h -0.1 c -0.1,0 -0.1,-0.1 -0.2,-0.1 H 23.4 23.3 23.2 23.1 23 c -0.1,0 -0.1,0 -0.2,0.1 -0.1,0 -0.1,0.1 -0.2,0.1 -0.1,0 -0.1,0.1 -0.1,0.1 l -0.1,0.1 -2.1,3 c -0.3,0.5 -0.2,1.1 0.3,1.4 0.2,0.1 0.4,0.2 0.6,0.2 0.3,0 0.6,-0.2 0.8,-0.4 l 0.6,-0.9 c 1.2,5 5.7,8.7 11.1,8.7 0.6,0 1,-0.4 1,-1 0,-0.6 -0.4,-1.1 -0.9,-1.1 z M 34.2,19 c 4.5,0 8.2,3.1 9.2,7.3 l -1.3,-0.9 c -0.5,-0.3 -1.1,-0.2 -1.4,0.3 -0.3,0.5 -0.2,1.1 0.3,1.4 l 3.1,2.1 c 0,0 0.1,0 0.1,0.1 0,0 0.1,0 0.1,0.1 0.1,0 0.2,0.1 0.3,0.1 0.2,0 0.3,0 0.4,-0.1 0,0 0.1,0 0.1,-0.1 0.1,-0.1 0.2,-0.1 0.2,-0.2 h 0.1 l 2.1,-3 C 47.8,25.6 47.7,25 47.2,24.7 46.7,24.4 46.1,24.5 45.8,25 l -0.6,0.9 c -1.2,-5 -5.7,-8.7 -11.1,-8.7 -0.6,0 -1,0.4 -1,1 0,0.6 0.6,0.8 1.1,0.8 z M 66.7,38 59.8,31.2 59.5,31 H 36.7 V 67 H 67 V 38.3 Z m -3.1,-0.3 h -3.4 v -3.4 l 2.3,2.2 z M 38.7,65 V 33 h 19.5 v 5.8 c 0,0.6 0.4,1 1,1 H 65 V 65 Z"
       id="path18"
       style="fill:url(#linearGradient31)" />
    <path
       d="M 59.1,44.6 H 44.5 c -0.6,0 -1,0.4 -1,1 0,0.6 0.4,1 1,1 h 14.6 c 0.6,0 1,-0.4 1,-1 0,-0.6 -0.4,-1 -1,-1 z m 0,4.3 H 44.5 c -0.6,0 -1,0.4 -1,1 0,0.6 0.4,1 1,1 h 14.6 c 0.6,0 1,-0.4 1,-1 0,-0.6 -0.4,-1 -1,-1 z m 0,4.2 H 44.5 c -0.6,0 -1,0.4 -1,1 0,0.6 0.4,1 1,1 h 14.6 c 0.6,0 1,-0.4 1,-1 0,-0.6 -0.4,-1 -1,-1 z M 31.3,8.3 31,8.1 24.1,1.3 23.9,1 H 1 V 37 H 31.3 Z M 27.9,7.8 H 24.5 V 4.4 l 2.3,2.2 z M 3,35 V 3 h 19.5 v 5.8 c 0,0.6 0.4,1 1,1 h 5.9 V 35 Z"
       id="path20"
       style="fill:url(#linearGradient33)" />
    <path
       d="m 16.2,16.3 c -1.5,0 -2.8,1.2 -2.8,2.7 0,1.5 1.2,2.7 2.8,2.7 1.6,0 2.8,-1.2 2.8,-2.7 0,-1.5 -1.3,-2.7 -2.8,-2.7 z m 0,3.4 c -0.4,0 -0.8,-0.3 -0.8,-0.7 0,-0.4 0.3,-0.7 0.8,-0.7 0.4,0 0.8,0.3 0.8,0.7 -0.1,0.4 -0.4,0.7 -0.8,0.7 z m 7.3,-3.4 c -1.5,0 -2.8,1.2 -2.8,2.7 0,1.5 1.2,2.7 2.8,2.7 1.6,0 2.8,-1.2 2.8,-2.7 0,-1.5 -1.2,-2.7 -2.8,-2.7 z m 0,3.4 c -0.4,0 -0.8,-0.3 -0.8,-0.7 0,-0.4 0.3,-0.7 0.8,-0.7 0.4,0 0.8,0.3 0.8,0.7 0,0.4 -0.3,0.7 -0.8,0.7 z M 8.8,16.3 C 7.3,16.3 6,17.5 6,19 c 0,1.5 1.2,2.7 2.8,2.7 1.6,0 2.8,-1.2 2.8,-2.7 0,-1.5 -1.3,-2.7 -2.8,-2.7 z m 0,3.4 C 8.4,19.7 8,19.4 8,19 c 0,-0.4 0.3,-0.7 0.8,-0.7 0.4,0 0.8,0.3 0.8,0.7 0,0.4 -0.4,0.7 -0.8,0.7 z"
       id="path22"
       style="fill:url(#linearGradient35)" />
  </g>
  <!---->
</svg>
